Normalized EMG Linear Envelopes
nRows=153
nColumns=4

endheader
time	 med_gas_r	  soleus_r	 tib_ant_r	
2.25	  0.010354	  0.029523	  0.001466	
2.3125	  0.011000	  0.028352	  0.001378	
2.375	  0.011693	  0.027911	  0.001342	
2.4375	  0.012143	  0.027612	  0.001367	
2.5	  0.012098	  0.026932	  0.001444	
2.5625	  0.011891	  0.025730	  0.001571	
2.625	  0.012036	  0.024787	  0.001697	
2.6875	  0.012273	  0.024432	  0.001755	
2.75	  0.012723	  0.024689	  0.001715	
2.8125	  0.013362	  0.025428	  0.001620	
2.875	  0.013875	  0.026299	  0.001523	
2.9375	  0.014267	  0.026573	  0.001429	
3	  0.014469	  0.026071	  0.001372	
3.0625	  0.014366	  0.025412	  0.001383	
3.125	  0.014483	  0.025021	  0.001424	
3.1875	  0.014395	  0.024955	  0.001471	
3.25	  0.014295	  0.025417	  0.001503	
3.3125	  0.014562	  0.026463	  0.001516	
3.375	  0.015392	  0.027801	  0.001548	
3.4375	  0.017258	  0.029065	  0.001621	
3.5	  0.020046	  0.029655	  0.001718	
3.5625	  0.023167	  0.029787	  0.001810	
3.625	  0.026241	  0.029490	  0.001844	
3.6875	  0.028036	  0.028215	  0.001811	
3.75	  0.028498	  0.026510	  0.001742	
3.8125	  0.027477	  0.025310	  0.001672	
3.875	  0.025187	  0.024872	  0.001629	
3.9375	  0.022655	  0.024625	  0.001578	
4	  0.020604	  0.023724	  0.001499	
4.0625	  0.019288	  0.022364	  0.001403	
4.125	  0.019083	  0.021240	  0.001315	
4.1875	  0.021689	  0.021451	  0.001346	
4.25	  0.029694	  0.024776	  0.001661	
4.3125	  0.046060	  0.033614	  0.002508	
4.375	  0.071325	  0.050763	  0.004071	
4.4375	  0.100158	  0.075426	  0.006159	
4.5	  0.121240	  0.103413	  0.008217	
4.5625	  0.138833	  0.138331	  0.010588	
4.625	  0.160482	  0.182683	  0.013455	
4.6875	  0.184310	  0.223962	  0.015705	
4.75	  0.207056	  0.249784	  0.016459	
4.8125	  0.225769	  0.263943	  0.016114	
4.875	  0.243021	  0.281984	  0.015820	
4.9375	  0.259882	  0.315389	  0.015836	
5	  0.276456	  0.365178	  0.016347	
5.0625	  0.296162	  0.418456	  0.017602	
5.125	  0.320195	  0.459074	  0.019126	
5.1875	  0.349911	  0.476101	  0.021210	
5.25	  0.385623	  0.464662	  0.024229	
5.3125	  0.427175	  0.440417	  0.028120	
5.375	  0.466385	  0.425299	  0.032895	
5.4375	  0.500461	  0.431524	  0.038086	
5.5	  0.536141	  0.458587	  0.043162	
5.5625	  0.566101	  0.493771	  0.047679	
5.625	  0.582182	  0.525160	  0.050601	
5.6875	  0.590797	  0.547634	  0.052242	
5.75	  0.610434	  0.549366	  0.053713	
5.8125	  0.644314	  0.531746	  0.055666	
5.875	  0.661306	  0.517275	  0.058507	
5.9375	  0.660107	  0.531476	  0.062059	
6	  0.677144	  0.569461	  0.065340	
6.0625	  0.711582	  0.606037	  0.065881	
6.125	  0.748304	  0.628162	  0.064705	
6.1875	  0.779062	  0.638287	  0.064052	
6.25	  0.790269	  0.646049	  0.065448	
6.3125	  0.776136	  0.659680	  0.069637	
6.375	  0.751016	  0.674333	  0.074579	
6.4375	  0.728665	  0.686145	  0.076152	
6.5	  0.718909	  0.686342	  0.073927	
6.5625	  0.715262	  0.656240	  0.068885	
6.625	  0.713777	  0.613648	  0.064196	
6.6875	  0.709333	  0.581368	  0.061669	
6.75	  0.691612	  0.559896	  0.060914	
6.8125	  0.664956	  0.542552	  0.061186	
6.875	  0.642060	  0.524688	  0.062307	
6.9375	  0.632876	  0.507990	  0.063855	
7	  0.640686	  0.505542	  0.066142	
7.0625	  0.656673	  0.522256	  0.068522	
7.125	  0.670300	  0.554372	  0.071689	
7.1875	  0.679935	  0.594278	  0.075584	
7.25	  0.712851	  0.641632	  0.078622	
7.3125	  0.770601	  0.685312	  0.080645	
7.375	  0.838240	  0.706299	  0.082105	
7.4375	  0.909710	  0.711522	  0.083295	
7.5	  0.964510	  0.712270	  0.082506	
7.5625	  0.985721	  0.709086	  0.080659	
7.625	  0.958593	  0.709873	  0.079275	
7.6875	  0.900402	  0.710731	  0.078386	
7.75	  0.825338	  0.692857	  0.077726	
7.8125	  0.749872	  0.654774	  0.076868	
7.875	  0.707695	  0.620018	  0.077351	
7.9375	  0.700983	  0.602448	  0.077809	
8	  0.709504	  0.603811	  0.076963	
8.0625	  0.711851	  0.611747	  0.074578	
8.125	  0.701913	  0.617559	  0.070306	
8.1875	  0.691179	  0.614637	  0.066426	
8.25	  0.694325	  0.603635	  0.063692	
8.3125	  0.702157	  0.596940	  0.062198	
8.375	  0.705801	  0.587540	  0.061081	
8.4375	  0.689982	  0.567756	  0.059080	
8.5	  0.663283	  0.542519	  0.055904	
8.5625	  0.647747	  0.519197	  0.053932	
8.625	  0.640439	  0.486231	  0.053541	
8.6875	  0.607952	  0.432433	  0.053536	
8.75	  0.543839	  0.353433	  0.053136	
8.8125	  0.457657	  0.261426	  0.054625	
8.875	  0.363296	  0.179164	  0.061275	
8.9375	  0.277270	  0.117534	  0.067081	
9	  0.211708	  0.079062	  0.061276	
9.0625	  0.167577	  0.057567	  0.050426	
9.125	  0.134644	  0.046347	  0.045723	
9.1875	  0.099414	  0.040312	  0.050316	
9.25	  0.062058	  0.037152	  0.056476	
9.3125	  0.030987	  0.034936	  0.056137	
9.375	  0.012163	  0.032285	  0.044688	
9.4375	  0.003758	  0.029548	  0.027489	
9.5	  0.001507	  0.027764	  0.013333	
9.5625	  0.002008	  0.027115	  0.004946	
9.625	  0.003357	  0.026711	  0.001261	
9.6875	  0.004751	  0.025833	  0.000430	
9.75	  0.005917	  0.024430	  0.000828	
9.8125	  0.006630	  0.023065	  0.001396	
9.875	  0.006523	  0.022331	  0.001679	
9.9375	  0.005724	  0.022126	  0.001712	
10	  0.004599	  0.021875	  0.001640	
10.0625	  0.003534	  0.021477	  0.001567	
10.125	  0.002851	  0.020911	  0.001534	
10.1875	  0.002550	  0.020410	  0.001525	
10.25	  0.002537	  0.019952	  0.001521	
10.3125	  0.002663	  0.019581	  0.001513	
10.375	  0.002775	  0.019537	  0.001484	
10.4375	  0.002844	  0.019473	  0.001435	
10.5	  0.002846	  0.019145	  0.001408	
10.5625	  0.002752	  0.018871	  0.001387	
10.625	  0.002646	  0.018710	  0.001362	
10.6875	  0.002677	  0.018615	  0.001360	
10.75	  0.002936	  0.018413	  0.001370	
10.8125	  0.003461	  0.018023	  0.001394	
10.875	  0.004260	  0.017584	  0.001454	
10.9375	  0.005150	  0.017279	  0.001512	
11	  0.005392	  0.017230	  0.001518	
11.0625	  0.004690	  0.017449	  0.001492	
11.125	  0.003766	  0.017866	  0.001423	
11.1875	  0.003037	  0.018354	  0.001326	
11.25	  0.002571	  0.018789	  0.001255	
11.3125	  0.002381	  0.019139	  0.001265	
11.375	  0.002412	  0.019413	  0.001380	
11.4375	  0.002588	  0.019631	  0.001610	
11.5	  0.002803	  0.019803	  0.001949	
11.5625	  0.002933	  0.019941	  0.002317	
11.625	  0.002980	  0.020073	  0.002460	
11.6875	  0.002952	  0.020198	  0.002206	
11.75	  0.002894	  0.020276	  0.001837	
